# xmcd
#
# Track frame offsets:
#	150
#	3506
#	23528
#	42252
#	63923
#	67212
#	88077
#	108032
#	128004
#	133104
#	153719
#	174935
#	196564
#	219019
#	240094
#	257057
#	261830
#
# Disc length: 3727 seconds
#
# Revision: 0
# Processed by: cddbd v1.4PL0 Copyright (c) Steve Scherf et al.
# Submitted via: dBpowerAMP V4.0
#
DISCID=d50e8d11
DTITLE=Syleena Johnson - Chapter 1:  Love, Pain, and Forgiveness
DYEAR=1900
DGENRE=Blues
TTITLE0=The Beginning (Intro)
TTITLE1=I am Your Woman
TTITLE2=You Said 
TTITLE3=Baby I'm So Confused
TTITLE4=Meanwhile--- (Interlude)
TTITLE5=Everybody Wants Something
TTITLE6=You Got Me Spinnin
TTITLE7=Hit On Me
TTITLE8=And Then--- (Interlude)
TTITLE9=He's Gonna Do You In
TTITLE10=You Ain't Right
TTITLE11=Ain't No Love
TTITLE12=One Day
TTITLE13=I'd Rather Be Wrong
TTITLE14=All Of Me
TTITLE15=The End (Outro)
TTITLE16=Hit On Me (Remix)
EXTD=
EXTT0=
EXTT1=
EXTT2=
EXTT3=
EXTT4=
EXTT5=
EXTT6=
EXTT7=
EXTT8=
EXTT9=
EXTT10=
EXTT11=
EXTT12=
EXTT13=
EXTT14=
EXTT15=
EXTT16=
PLAYORDER=
